<svg width="64" height="64" viewBox="0 0 64 64" fill="none" xmlns="http://www.w3.org/2000/svg">
<path d="M40 60.6667C39.28 60.6667 38.6133 60.2667 38.2666 59.6533C37.92 59.0133 37.92 58.2667 38.2933 57.6267L41.0933 52.96C41.6533 52 42.9066 51.7067 43.84 52.2667C44.8 52.8267 45.0933 54.0533 44.5333 55.0133L43.8133 56.2133C51.1733 54.48 56.6933 47.8667 56.6933 39.9733C56.6933 38.88 57.6 37.9733 58.6933 37.9733C59.7866 37.9733 60.6933 38.88 60.6933 39.9733C60.6666 51.3867 51.3866 60.6667 40 60.6667Z" fill="#18181B"/>
<path d="M5.33331 26C4.23998 26 3.33331 25.0933 3.33331 24C3.33331 12.6133 12.6133 3.33334 24 3.33334C24.72 3.33334 25.3866 3.73334 25.7333 4.34668C26.08 4.98668 26.08 5.73334 25.7066 6.37334L22.9066 11.04C22.3466 11.9733 21.12 12.2933 20.16 11.7067C19.2266 11.1467 18.9066 9.92001 19.4933 8.96001L20.2133 7.76001C12.8266 9.49334 7.33331 16.1067 7.33331 24C7.33331 25.0933 6.42665 26 5.33331 26Z" fill="#18181B"/>
<path d="M39.4666 33.68V41.52C39.4666 48.0533 36.8533 50.6667 30.32 50.6667H22.48C15.9466 50.6667 13.3333 48.0533 13.3333 41.52V33.68C13.3333 27.1467 15.9466 24.5333 22.48 24.5333H30.32C36.8533 24.5333 39.4666 27.1467 39.4666 33.68Z" fill="#FFD800"/>
<path d="M41.52 13.3333H33.68C27.2533 13.3333 24.64 15.8933 24.56 22.1867H30.32C38.16 22.1867 41.7867 25.84 41.7867 33.6533V39.4133C48.1067 39.3333 50.64 36.72 50.64 30.2933V22.48C50.6667 15.9467 48.0533 13.3333 41.52 13.3333Z" fill="#FFD800"/>
</svg>
