<svg width="122" height="32" viewBox="0 0 122 32" fill="none" xmlns="http://www.w3.org/2000/svg">
<path d="M11.9116 32C11.4569 32 11.0932 31.8959 10.8204 31.6876C10.5779 31.4793 10.3809 31.1967 10.2294 30.8396L0.0909279 2.14226C0.0303093 1.96374 0 1.80009 0 1.65132C0 1.4133 0.0909279 1.20502 0.272784 1.0265C0.454639 0.847977 0.666805 0.758715 0.909279 0.758715H3.2734C3.63712 0.758715 3.9099 0.862853 4.09175 1.07113C4.30392 1.24965 4.42516 1.41329 4.45547 1.56206L13.3664 26.8675L22.2773 1.56206C22.338 1.41329 22.4592 1.24965 22.641 1.07113C22.8229 0.862853 23.0957 0.758715 23.4594 0.758715H25.8235C26.066 0.758715 26.2782 0.847977 26.46 1.0265C26.6722 1.20502 26.7783 1.4133 26.7783 1.65132C26.7783 1.80009 26.748 1.96374 26.6873 2.14226L16.5034 30.8396C16.3822 31.1967 16.1852 31.4793 15.9124 31.6876C15.6699 31.8959 15.3213 32 14.8667 32H11.9116Z" fill="#FAAC2E"/>
<path d="M32.0794 32C31.7763 32 31.5187 31.9107 31.3065 31.7322C31.1247 31.5239 31.0338 31.271 31.0338 30.9735V9.81869C31.0338 9.52115 31.1247 9.28312 31.3065 9.1046C31.5187 8.89633 31.7763 8.79219 32.0794 8.79219H34.2617C34.5648 8.79219 34.8073 8.89633 34.9891 9.1046C35.171 9.28312 35.2619 9.52115 35.2619 9.81869V30.9735C35.2619 31.271 35.171 31.5239 34.9891 31.7322C34.8073 31.9107 34.5648 32 34.2617 32H32.0794ZM31.7157 4.46304C31.4126 4.46304 31.155 4.37378 30.9428 4.19526C30.761 3.98698 30.67 3.73408 30.67 3.43654V1.0265C30.67 0.728962 30.761 0.490933 30.9428 0.312411C31.155 0.104137 31.4126 0 31.7157 0H34.5799C34.883 0 35.1255 0.104137 35.3074 0.312411C35.5195 0.490933 35.6256 0.728962 35.6256 1.0265V3.43654C35.6256 3.73408 35.5195 3.98698 35.3074 4.19526C35.1255 4.37378 34.883 4.46304 34.5799 4.46304H31.7157Z" fill="#FAAC2E"/>
<path d="M43.5342 32C43.2311 32 42.9735 31.9107 42.7613 31.7322C42.5795 31.5239 42.4885 31.271 42.4885 30.9735V9.81869C42.4885 9.52115 42.5795 9.28312 42.7613 9.1046C42.9735 8.89633 43.2311 8.79219 43.5342 8.79219H45.671C45.9741 8.79219 46.2166 8.89633 46.3984 9.1046C46.6106 9.28312 46.7167 9.52115 46.7167 9.81869V11.7824C47.5047 10.7708 48.4898 9.95258 49.6718 9.32775C50.8842 8.67317 52.43 8.34588 54.3092 8.34588C56.2793 8.34588 57.9463 8.77731 59.3102 9.64017C60.7044 10.4733 61.7501 11.6485 62.4472 13.166C63.1443 14.6536 63.4929 16.3942 63.4929 18.3877V30.9735C63.4929 31.271 63.402 31.5239 63.2201 31.7322C63.0382 31.9107 62.7958 32 62.4927 32H60.2195C59.9164 32 59.6588 31.9107 59.4466 31.7322C59.2647 31.5239 59.1738 31.271 59.1738 30.9735V18.6109C59.1738 16.5281 58.6585 14.9066 57.628 13.7462C56.5975 12.556 55.0821 11.9609 53.0816 11.9609C51.2025 11.9609 49.687 12.556 48.5352 13.7462C47.4138 14.9066 46.8531 16.5281 46.8531 18.6109V30.9735C46.8531 31.271 46.747 31.5239 46.5348 31.7322C46.353 31.9107 46.1105 32 45.8074 32H43.5342Z" fill="#FAAC2E"/>
<path d="M71.6966 32C71.3632 32 71.1056 31.9107 70.9238 31.7322C70.7419 31.5239 70.651 31.271 70.651 30.9735V1.82984C70.651 1.50256 70.7419 1.24965 70.9238 1.07113C71.1056 0.862853 71.3632 0.758715 71.6966 0.758715H90.4732C90.8066 0.758715 91.0643 0.862853 91.2461 1.07113C91.428 1.24965 91.5189 1.50256 91.5189 1.82984V3.5258C91.5189 3.85309 91.428 4.106 91.2461 4.28452C91.0643 4.46304 90.8066 4.5523 90.4732 4.5523H75.0155V14.3264H89.473C89.8064 14.3264 90.0641 14.4305 90.2459 14.6388C90.4278 14.8173 90.5187 15.0702 90.5187 15.3975V17.0488C90.5187 17.3463 90.4278 17.5993 90.2459 17.8075C90.0641 17.9861 89.8064 18.0753 89.473 18.0753H75.0155V28.2064H90.837C91.1704 28.2064 91.428 28.2957 91.6098 28.4742C91.7917 28.6527 91.8826 28.9056 91.8826 29.2329V30.9735C91.8826 31.271 91.7917 31.5239 91.6098 31.7322C91.428 31.9107 91.1704 32 90.837 32H71.6966Z" fill="#FAAC2E"/>
<path d="M96.3129 32C96.0704 32 95.8431 31.9107 95.6309 31.7322C95.4491 31.5537 95.3581 31.3454 95.3581 31.1074C95.3581 30.9884 95.3733 30.8842 95.4036 30.795C95.4642 30.676 95.5097 30.5867 95.54 30.5272L105.951 16.1116L96.0401 2.23152C95.9492 2.053 95.9037 1.8596 95.9037 1.65132C95.9037 1.4133 95.9946 1.20502 96.1765 1.0265C96.3583 0.847977 96.5705 0.758715 96.813 0.758715H99.5408C99.8439 0.758715 100.086 0.833099 100.268 0.981867C100.45 1.10088 100.617 1.2794 100.768 1.51743L108.77 12.675L116.726 1.51743C116.847 1.2794 116.999 1.10088 117.181 0.981867C117.393 0.833099 117.635 0.758715 117.908 0.758715H120.5C120.742 0.758715 120.954 0.847977 121.136 1.0265C121.318 1.20502 121.409 1.4133 121.409 1.65132C121.409 1.8596 121.348 2.053 121.227 2.23152L111.452 16.1562L121.818 30.5272C121.879 30.5867 121.924 30.676 121.955 30.795C121.985 30.8842 122 30.9884 122 31.1074C122 31.3454 121.909 31.5537 121.727 31.7322C121.545 31.9107 121.318 32 121.045 32H118.272C117.999 32 117.757 31.9256 117.545 31.7768C117.363 31.6281 117.196 31.4644 117.044 31.2859L108.588 19.682L100.177 31.2859C100.026 31.4644 99.8591 31.6281 99.6772 31.7768C99.4954 31.9256 99.2529 32 98.9498 32H96.3129Z" fill="#FAAC2E"/>
</svg>
