<svg width="12" height="12" viewBox="0 0 12 12" fill="none" xmlns="http://www.w3.org/2000/svg">
<path d="M5.845 4.58997H8.96C8.96917 4.58997 8.97417 4.59128 8.97626 4.59194C8.9785 4.59265 8.98021 4.59353 8.98189 4.59472C8.9857 4.5974 8.99199 4.60374 8.99658 4.61477C9.00119 4.62583 9.00139 4.63512 9.00053 4.64021C9.00015 4.64248 8.99952 4.64444 8.99845 4.64655C8.99749 4.64844 8.99516 4.65248 8.98956 4.6583L7.38644 6.26141L6.40144 7.24641C6.1817 7.46615 5.82329 7.46615 5.60355 7.24641L3.01355 4.65641C3.00691 4.64977 3.00419 4.64516 3.00311 4.64307C3.00196 4.64085 3.00136 4.63894 3.00101 4.63692C3.00021 4.63236 3.0003 4.62382 3.00458 4.61346C3.00886 4.60309 3.01478 4.59711 3.01835 4.5946C3.01993 4.59349 3.02156 4.59264 3.02376 4.59193C3.02583 4.59128 3.03082 4.58997 3.04 4.58997H5.845Z" fill="#18181B" stroke="#18181B"/>
</svg>
